<?xml version="1.0" encoding="utf-8"?>
<!-- Generator: Adobe Illustrator 16.0.4, SVG Export Plug-In . SVG Version: 6.00 Build 0)  -->
<!DOCTYPE svg PUBLIC "-//W3C//DTD SVG 1.1//EN" "http://www.w3.org/Graphics/SVG/1.1/DTD/svg11.dtd">
<svg version="1.1" id="レイヤー_1" xmlns="http://www.w3.org/2000/svg" xmlns:xlink="http://www.w3.org/1999/xlink" x="0px"
	 y="0px" width="40px" height="40px" viewBox="0 0 40 40" enable-background="new 0 0 40 40" xml:space="preserve">
<path fill="#3E74CF" d="M39.92,0H6.801v6.161H0v8.525l7.021,7.157c-1.271,0.782-2.311,1.911-2.991,3.265L0,20.998v16.66l4.397-4.48
	c0.73,1.171,1.739,2.144,2.941,2.81L3.479,39.92h15.085l-3.779-3.852c1.327-0.692,2.434-1.753,3.201-3.048l6.771,6.899h8.363v-6.162
	h6.8V0z M11.145,33.887c-2.743,0-4.975-2.273-4.975-5.07c0-2.795,2.231-5.07,4.975-5.07c2.743,0,4.974,2.275,4.974,5.07
	C16.119,31.613,13.888,33.887,11.145,33.887z M35.702,28.816H33.12V9.707L18.179,24.937c-0.653-1.227-1.606-2.253-2.758-2.999
	L30.9,6.161H10.327V3.787h25.375V28.816z"/>
<g>
</g>
<g>
</g>
<g>
</g>
<g>
</g>
<g>
</g>
<g>
</g>
<g>
</g>
<g>
</g>
<g>
</g>
<g>
</g>
<g>
</g>
<g>
</g>
<g>
</g>
<g>
</g>
<g>
</g>
</svg>
